<svg xmlns="http://www.w3.org/2000/svg" width="100%"
	 height="100%" viewBox="50 101 237 48" preserveAspectRatio="xMidYMid meet"
	 color-interpolation-filters="sRGB" style="margin: auto;">
	<g fill="#fff" class="endsvg" transform="translate(47.44500732421875,100.20499992370605)">
		<g class="tp-name">
			<g>
				<rect data-gra="graph-name-bg" stroke-width="2" class="i-icon-bg" x="0" y="0" width="245.1099853515625"
					  height="49.59000015258789" fill-opacity="0"></rect> <!----> <!----> </g>
			<g transform="translate(0,0)">
				<g data-gra="path-name-bg" mask="url(#4d978d69-ddd7-45e6-8fe1-55233f4dbe8b)">
					<g>
						<rect data-gra="graph-name-bg" stroke-width="2" class="i-icon-bg" x="0" y="0"
							  width="126.47999572753906" height="49.59000015258789"></rect> <!----> <!----> </g>
					<g transform="translate(5,7)">
						<g data-gra="path-name" fill="#25374E">
							<g transform="scale(1)">
								<path
									d="M0.98-35.10L13.49-35.10L13.49-30.57L5.50-30.57L5.50-12.90L9.04-12.90L9.04-8.38L5.50-8.38L5.50 0.49L0.98 0.49L0.98-35.10ZM20.46-30.52L20.46-12.95Q23.46-13.08 25.91-15.64L25.91-15.64Q28.35-18.21 28.35-21.75L28.35-21.75Q28.35-25.27 25.91-27.84L25.91-27.84Q23.46-30.40 20.46-30.52L20.46-30.52ZM32.90-21.75L32.90-21.75Q32.90-18.13 31.06-15.01L31.06-15.01Q29.30-12.00 27.01-10.66L27.01-10.66Q29.21-9.36 30.96-6.48L30.96-6.48Q32.75-3.49 32.90 0.49L32.90 0.49L28.37 0.49Q28.18-3.37 25.76-5.79L25.76-5.79Q23.34-8.21 20.46-8.36L20.46-8.36L20.46 0.49L15.93 0.49L15.93-35.10L20.46-35.10L20.46-35.07Q25.37-34.90 29.11-31.01L29.11-31.01Q32.90-27.13 32.90-21.75ZM35.34 0.49L35.34-35.10L39.86-35.10L39.86 0.49L35.34 0.49ZM42.30-35.10L54.82-35.10L54.82-30.57L46.83-30.57L46.83-12.90L50.37-12.90L50.37-8.38L46.83-8.38L46.83-4.03L54.82-4.03L54.82 0.49L42.30 0.49L42.30-35.10ZM64.84-35.10L64.84-35.10Q67.99-35.10 70.21-32.87L70.21-32.87Q72.44-30.65 72.44-27.52L72.44-27.52L72.44 0.49L67.92 0.49L67.92-27.52Q67.92-28.77 67.01-29.67L67.01-29.67Q66.11-30.57 64.84-30.57L64.84-30.57Q63.59-30.57 62.69-29.67L62.69-29.67Q61.78-28.77 61.78-27.52L61.78-27.52L61.78 0.49L57.26 0.49L57.26-27.52Q57.26-30.65 59.49-32.87L59.49-32.87Q61.71-35.10 64.84-35.10ZM79.40-30.38L79.40-4.23Q83.78-4.79 87.08-8.50L87.08-8.50Q90.40-12.29 90.40-17.30L90.40-17.30Q90.40-22.31 87.08-26.10L87.08-26.10Q83.78-29.82 79.40-30.38L79.40-30.38ZM74.88-35.10L77.16-35.10Q84.51-35.10 89.72-29.89L89.72-29.89Q94.95-24.66 94.95-17.30L94.95-17.30Q94.95-9.95 89.72-4.72L89.72-4.72Q84.51 0.49 77.16 0.49L77.16 0.49L74.88 0.49L74.88-35.10ZM107.41-30.57L107.41-30.57Q105.14-30.57 103.53-28.96L103.53-28.96Q101.91-27.35 101.91-25.07L101.91-25.07Q101.91-22.80 103.53-21.19L103.53-21.19Q105.14-19.58 107.41-19.58L107.41-19.58Q111.57-19.58 114.50-16.62L114.50-16.62Q117.46-13.69 117.46-9.53L117.46-9.53Q117.46-5.40 114.50-2.44L114.50-2.44Q111.57 0.49 107.41 0.49L107.41 0.49Q103.28 0.49 100.32-2.44L100.32-2.44Q97.39-5.40 97.39-10.02L97.39-10.02L101.91-10.02Q101.91-7.26 103.53-5.65L103.53-5.65Q105.14-4.03 107.41-4.03L107.41-4.03Q109.68-4.03 111.30-5.65L111.30-5.65Q112.91-7.26 112.91-9.53L112.91-9.53Q112.91-11.80 111.30-13.42L111.30-13.42Q109.68-15.03 107.41-15.03L107.41-15.03Q103.28-15.03 100.32-17.99L100.32-17.99Q97.39-20.92 97.39-25.07L97.39-25.07Q97.39-29.21 100.32-32.16L100.32-32.16Q103.28-35.10 107.41-35.10L107.41-35.10Q111.57-35.10 114.50-32.16L114.50-32.16Q117.46-29.21 117.46-24.59L117.46-24.59L112.91-24.59Q112.91-27.35 111.30-28.96L111.30-28.96Q109.68-30.57 107.41-30.57Z"
									transform="translate(-0.9775794283285517, 35.095101476995005)"></path>
							</g>
						</g>
					</g>
				</g>
				<g data-gra="path-name-1-bg" transform="translate(126.47999572753906,0)">
					<g>
						<rect data-gra="graph-name-bg" stroke-width="2" class="i-icon-bg" x="0" y="0"
							  width="118.62999725341797" height="49.59000015258789" fill-opacity="0"></rect> <!---->
						<!----> </g>
					<g transform="translate(5,7)">

						<g data-gra="path-name-1" fill="#fff">
							<g transform="scale(1)">
								<path
									d="M5.50-19.58L5.91-19.58Q8.19-19.58 9.80-21.19L9.80-21.19Q11.41-22.80 11.41-25.07L11.41-25.07Q11.41-27.35 9.80-28.96L9.80-28.96Q8.19-30.57 5.91-30.57L5.91-30.57L5.50-30.57L5.50-19.58ZM11.41-9.53L11.41-9.53Q11.41-11.80 9.80-13.42L9.80-13.42Q8.19-15.03 5.91-15.03L5.91-15.03L5.50-15.03L5.50-4.03L5.91-4.03Q8.19-4.03 9.80-5.65L9.80-5.65Q11.41-7.26 11.41-9.53ZM15.93-25.07L15.93-25.07Q15.93-19.92 12.27-17.30L12.27-17.30Q15.93-14.69 15.93-9.53L15.93-9.53Q15.93-5.40 13.00-2.44L13.00-2.44Q10.04 0.49 5.91 0.49L5.91 0.49L0.98 0.49L0.98-35.10L5.91-35.10Q10.04-35.10 13.00-32.16L13.00-32.16Q15.93-29.21 15.93-25.07ZM36.17-4.03L36.17-4.03Q41.64-4.03 45.56-7.92L45.56-7.92Q49.44-11.83 49.44-17.30L49.44-17.30Q49.44-22.78 45.56-26.69L45.56-26.69Q41.64-30.57 36.17-30.57L36.17-30.57Q30.70-30.57 26.79-26.69L26.79-26.69Q22.90-22.78 22.90-17.30L22.90-17.30Q22.90-11.83 26.79-7.92L26.79-7.92Q30.70-4.03 36.17-4.03ZM36.17-35.10L36.17-35.10Q43.53-35.10 48.76-29.89L48.76-29.89Q53.96-24.66 53.96-17.30L53.96-17.30Q53.96-9.95 48.76-4.72L48.76-4.72Q43.53 0.49 36.17 0.49L36.17 0.49Q28.81 0.49 23.58-4.72L23.58-4.72Q18.38-9.95 18.38-17.30L18.38-17.30Q18.38-24.66 23.58-29.89L23.58-29.89Q28.81-35.10 36.17-35.10ZM74.20-4.03L74.20-4.03Q79.67-4.03 83.58-7.92L83.58-7.92Q87.47-11.83 87.47-17.30L87.47-17.30Q87.47-22.78 83.58-26.69L83.58-26.69Q79.67-30.57 74.20-30.57L74.20-30.57Q68.72-30.57 64.81-26.69L64.81-26.69Q60.93-22.78 60.93-17.30L60.93-17.30Q60.93-11.83 64.81-7.92L64.81-7.92Q68.72-4.03 74.20-4.03ZM74.20-35.10L74.20-35.10Q81.55-35.10 86.78-29.89L86.78-29.89Q91.99-24.66 91.99-17.30L91.99-17.30Q91.99-9.95 86.78-4.72L86.78-4.72Q81.55 0.49 74.20 0.49L74.20 0.49Q66.84 0.49 61.61-4.72L61.61-4.72Q56.41-9.95 56.41-17.30L56.41-17.30Q56.41-24.66 61.61-29.89L61.61-29.89Q66.84-35.10 74.20-35.10ZM105.09-25.07L105.09-35.10L109.61-35.10L109.61-25.07Q109.61-19.92 105.95-17.30L105.95-17.30Q109.61-14.69 109.61-9.53L109.61-9.53L109.61 0.49L105.09 0.49L105.09-9.53Q105.09-11.80 103.48-13.42L103.48-13.42Q101.86-15.03 99.59-15.03L99.59-15.03L98.96-15.03L98.96 0.49L94.43 0.49L94.43-35.10L98.96-35.10L98.96-19.58L99.59-19.58Q101.86-19.58 103.48-21.19L103.48-21.19Q105.09-22.80 105.09-25.07L105.09-25.07Z"
									transform="translate(-0.9775794283285517, 35.095101476995005)"></path>
							</g>
						</g>
					</g>
				</g>
			</g>
		</g> <!----> <!----> <!----> <!----> <!----> <!----></g>
	<mask id="4d978d69-ddd7-45e6-8fe1-55233f4dbe8b">
		<g fill="white">
			<rect data-gra="graph-name-bg" stroke-width="2" class="i-icon-bg" x="0" y="0" width="126.47999572753906"
				  height="49.59000015258789"></rect>
		</g>
		<g transform="translate(5,7)" fill="black">
			<g data-gra="path-name">
				<g transform="scale(1)">
					<path
						d="M0.98-35.10L13.49-35.10L13.49-30.57L5.50-30.57L5.50-12.90L9.04-12.90L9.04-8.38L5.50-8.38L5.50 0.49L0.98 0.49L0.98-35.10ZM20.46-30.52L20.46-12.95Q23.46-13.08 25.91-15.64L25.91-15.64Q28.35-18.21 28.35-21.75L28.35-21.75Q28.35-25.27 25.91-27.84L25.91-27.84Q23.46-30.40 20.46-30.52L20.46-30.52ZM32.90-21.75L32.90-21.75Q32.90-18.13 31.06-15.01L31.06-15.01Q29.30-12.00 27.01-10.66L27.01-10.66Q29.21-9.36 30.96-6.48L30.96-6.48Q32.75-3.49 32.90 0.49L32.90 0.49L28.37 0.49Q28.18-3.37 25.76-5.79L25.76-5.79Q23.34-8.21 20.46-8.36L20.46-8.36L20.46 0.49L15.93 0.49L15.93-35.10L20.46-35.10L20.46-35.07Q25.37-34.90 29.11-31.01L29.11-31.01Q32.90-27.13 32.90-21.75ZM35.34 0.49L35.34-35.10L39.86-35.10L39.86 0.49L35.34 0.49ZM42.30-35.10L54.82-35.10L54.82-30.57L46.83-30.57L46.83-12.90L50.37-12.90L50.37-8.38L46.83-8.38L46.83-4.03L54.82-4.03L54.82 0.49L42.30 0.49L42.30-35.10ZM64.84-35.10L64.84-35.10Q67.99-35.10 70.21-32.87L70.21-32.87Q72.44-30.65 72.44-27.52L72.44-27.52L72.44 0.49L67.92 0.49L67.92-27.52Q67.92-28.77 67.01-29.67L67.01-29.67Q66.11-30.57 64.84-30.57L64.84-30.57Q63.59-30.57 62.69-29.67L62.69-29.67Q61.78-28.77 61.78-27.52L61.78-27.52L61.78 0.49L57.26 0.49L57.26-27.52Q57.26-30.65 59.49-32.87L59.49-32.87Q61.71-35.10 64.84-35.10ZM79.40-30.38L79.40-4.23Q83.78-4.79 87.08-8.50L87.08-8.50Q90.40-12.29 90.40-17.30L90.40-17.30Q90.40-22.31 87.08-26.10L87.08-26.10Q83.78-29.82 79.40-30.38L79.40-30.38ZM74.88-35.10L77.16-35.10Q84.51-35.10 89.72-29.89L89.72-29.89Q94.95-24.66 94.95-17.30L94.95-17.30Q94.95-9.95 89.72-4.72L89.72-4.72Q84.51 0.49 77.16 0.49L77.16 0.49L74.88 0.49L74.88-35.10ZM107.41-30.57L107.41-30.57Q105.14-30.57 103.53-28.96L103.53-28.96Q101.91-27.35 101.91-25.07L101.91-25.07Q101.91-22.80 103.53-21.19L103.53-21.19Q105.14-19.58 107.41-19.58L107.41-19.58Q111.57-19.58 114.50-16.62L114.50-16.62Q117.46-13.69 117.46-9.53L117.46-9.53Q117.46-5.40 114.50-2.44L114.50-2.44Q111.57 0.49 107.41 0.49L107.41 0.49Q103.28 0.49 100.32-2.44L100.32-2.44Q97.39-5.40 97.39-10.02L97.39-10.02L101.91-10.02Q101.91-7.26 103.53-5.65L103.53-5.65Q105.14-4.03 107.41-4.03L107.41-4.03Q109.68-4.03 111.30-5.65L111.30-5.65Q112.91-7.26 112.91-9.53L112.91-9.53Q112.91-11.80 111.30-13.42L111.30-13.42Q109.68-15.03 107.41-15.03L107.41-15.03Q103.28-15.03 100.32-17.99L100.32-17.99Q97.39-20.92 97.39-25.07L97.39-25.07Q97.39-29.21 100.32-32.16L100.32-32.16Q103.28-35.10 107.41-35.10L107.41-35.10Q111.57-35.10 114.50-32.16L114.50-32.16Q117.46-29.21 117.46-24.59L117.46-24.59L112.91-24.59Q112.91-27.35 111.30-28.96L111.30-28.96Q109.68-30.57 107.41-30.57Z"
						transform="translate(-0.9775794283285517, 35.095101476995005)"></path>
				</g>
			</g>
		</g>
	</mask>
</svg>

